<svg viewBox="0 0 1200 380" width="100%" height="340" xmlns="http://www.w3.org/2000/svg">
    <style>
        text { font-family: -apple-system, BlinkMacSystemFont, "Segoe UI", Roboto, Helvetica, Arial, sans-serif; }
        .box-bg { fill: #e9f7ef; stroke: #b7e4c7; stroke-width: 1; }
        .title { font-weight: 700; font-size: 16px; fill: #1a202c; }
        .content { font-size: 13px; fill: #4a5568; }
    </style>

    <g>
        <rect class="box-bg" x="20" y="20" width="570" height="100" rx="6"/>
        <rect x="20" y="20" width="4" height="100" fill="#42b883"/>
        <text class="title" x="40" y="50">Console &amp; Web Entrypoints</text>
        <text class="content" x="40" y="78">CLI &#8226; HelloController &#8226; index.php &#8226; index-test.php</text>
        <text class="content" x="40" y="98">Built-in PHP server via router.php &#8226; Separate web/console configs</text>
    </g>

    <g>
        <rect class="box-bg" x="610" y="20" width="570" height="100" rx="6"/>
        <rect x="610" y="20" width="4" height="100" fill="#42b883"/>
        <text class="title" x="630" y="50">Database Layer</text>
        <text class="content" x="630" y="78">SQLite-ready db.php &#8226; CreateUserTable &#8226; CreateAdminUser</text>
        <text class="content" x="630" y="98">safeUp() / safeDown() migrations &#8226; User ActiveRecord + Search</text>
    </g>

    <g>
        <rect class="box-bg" x="20" y="140" width="570" height="100" rx="6"/>
        <rect x="20" y="140" width="4" height="100" fill="#42b883"/>
        <text class="title" x="40" y="170">Quality Tooling</text>
        <text class="content" x="40" y="198">PHPStan level max &#8226; Codeception 5.3 &#8226; PSR-12 / PER 3.0</text>
        <text class="content" x="40" y="218">Mutation testing &#8226; composer-require-checker &#8226; PHP 8.3 / 8.4 / 8.5</text>
    </g>

    <g>
        <rect class="box-bg" x="610" y="140" width="570" height="100" rx="6"/>
        <rect x="610" y="140" width="4" height="100" fill="#42b883"/>
        <text class="title" x="630" y="170">RBAC + Mail</text>
        <text class="content" x="630" y="198">PhpManager items, rules, assignments &#8226; Symfony Mailer</text>
        <text class="content" x="630" y="218">HTML + text layouts for email verify and password reset</text>
    </g>

    <g>
        <rect class="box-bg" x="20" y="260" width="570" height="100" rx="6"/>
        <rect x="20" y="260" width="4" height="100" fill="#42b883"/>
        <text class="title" x="40" y="290">Scaffold Provider</text>
        <text class="content" x="40" y="318">Ships via yii2-extensions/scaffold &#8226; Declarative manifest</text>
        <text class="content" x="40" y="338">Per-file modes: preserve for config, rbac, and runtime assets</text>
    </g>

    <g>
        <rect class="box-bg" x="610" y="260" width="570" height="100" rx="6"/>
        <rect x="610" y="260" width="4" height="100" fill="#42b883"/>
        <text class="title" x="630" y="290">User Authentication</text>
        <text class="content" x="630" y="318">Login &#8226; Signup &#8226; Password reset &#8226; Email verification</text>
        <text class="content" x="630" y="338">ActiveRecord User + 8 form models, Turnstile-ready contact form</text>
    </g>
</svg>
